<svg version="1.1" viewBox="0.0 0.0 192.0 192.0" fill="none" stroke="none" stroke-linecap="square" stroke-miterlimit="10" xmlns:xlink="http://www.w3.org/1999/xlink" xmlns="http://www.w3.org/2000/svg"><clipPath id="p.0"><path d="m0 0l192.0 0l0 192.0l-192.0 0l0 -192.0z" clip-rule="nonzero"/></clipPath><g clip-path="url(#p.0)"><path fill="#000000" fill-opacity="0.0" d="m0 0l192.0 0l0 192.0l-192.0 0z" fill-rule="evenodd"/><path fill="#000000" d="m95.9995 191.99617c-53.019337 0 -96.0 -42.980667 -96.0 -96.0c0 -25.460785 10.114257 -49.878757 28.117748 -67.88225c18.003494 -18.003494 42.421467 -28.11775 67.88225 -28.11775c53.019333 0 96.0 42.980663 96.0 96.0c0 53.019333 -42.980667 96.0 -96.0 96.0z" fill-rule="evenodd"/><path fill="#00ff00" d="m74.00195 160.6078l18.0009 31.388367l7.0475235 0l17.986755 -31.388367l-6.509758 -4.1747437l-15.000755 26.138763l-15.000755 -26.138763l-6.5239105 4.1747437z" fill-rule="evenodd"/><path fill="#00ff00" d="m74.00195 140.95888l6.5239105 4.1747284l15.000755 -26.138748l15.000755 26.138748l6.509758 -4.1747284l-17.986755 -31.388374l-7.0475235 0l-18.0009 31.388374z" fill-rule="evenodd"/><path fill="#00ff00" d="m51.041462 44.64871l-36.183487 -0.10480499l-3.5237303 6.1033325l18.189823 31.271023l6.8702793 -3.5502625l-15.136511 -26.060295l30.137129 0.07823181l-0.35350037 -7.7372246z" fill-rule="evenodd"/><path fill="#00ff00" d="m68.05792 54.473083l-6.8773537 3.562523l15.136509 26.060287l-30.137127 -0.07823181l0.36057663 7.724968l36.176414 0.11706543l3.5237274 -6.1033325l-18.182747 -31.28328z" fill-rule="evenodd"/><path fill="#00ff00" d="m162.94339 82.74058l18.182495 -31.283268l-3.5237427 -6.1032906l-36.176285 0.11726761l-0.36053467 7.7249413l30.137024 -0.07839966l-15.136307 26.06028l6.87735 3.5624695z" fill-rule="evenodd"/><path fill="#00ff00" d="m145.92705 92.56501l0.3534546 -7.737198l-30.137016 0.07839966l15.136299 -26.060276l-6.87027 -3.5502167l-18.189575 31.271008l3.5237503 6.1032944l36.183357 -0.10501099z" fill-rule="evenodd"/><path fill="#ff0000" d="m22.416733 73.094734c-0.45435143 0 -0.8452263 0.17751312 -1.1726227 0.5325241c-0.3273964 0.34791565 -0.4910984 0.7597351 -0.4910984 1.235466l0 10.533356c0 0.4828186 0.16370201 0.89819336 0.4910984 1.246109c0.3273964 0.34791565 0.71827126 0.5218735 1.1726227 0.5218735l13.22958 0l0 29.970543c0 0.48282623 0.16370392 0.89819336 0.4911003 1.246109c0.33408356 0.34791565 0.7249565 0.5218735 1.1726227 0.5218735l12.68837 0c0.45435333 0 0.8452263 -0.17395782 1.1726227 -0.5218735c0.3273964 -0.34791565 0.4911003 -0.7632828 0.4911003 -1.246109l0 -29.970543l13.239605 0c0.44766998 0 0.83519745 -0.17395782 1.1625977 -0.5218735c0.33408356 -0.34791565 0.5011215 -0.7632904 0.5011215 -1.246109l0 -10.533356c0 -0.47572327 -0.16703796 -0.8875427 -0.5011215 -1.235466c-0.3274002 -0.355011 -0.7149353 -0.5325241 -1.1625977 -0.5325241z" fill-rule="evenodd"/><path fill="#ff0000" d="m96.18566 85.72624l4.369766 13.611359l-8.749565 0l4.379799 -13.611359zm-8.559143 -12.631508c-1.4833145 0 -2.4087143 0.72068787 -2.776207 2.162056l-13.420006 41.81391c-0.04009247 0.12780762 -0.060134888 0.3230667 -0.060134888 0.5857773c0 0.26271057 0.1302948 0.5360718 0.39087677 0.82009125c0.26726532 0.28401184 0.5879822 0.42601776 0.9621506 0.42601776l11.636017 0c1.3162766 0 2.2383423 -0.7419815 2.766182 -2.2259598l1.543457 -4.5797195l15.02359 0l1.5434494 4.5797195c0.53453064 1.4839783 1.4565964 2.2259598 2.7661896 2.2259598l11.636017 0c0.3741684 0 0.69488525 -0.14200592 0.9621506 -0.42601776c0.26726532 -0.28401184 0.4009018 -0.55737305 0.4009018 -0.82009125c0 -0.26271057 -0.020050049 -0.45796967 -0.060134888 -0.5857773l-13.430031 -41.81391c-0.36749268 -1.4413681 -1.2895508 -2.162056 -2.7661896 -2.162056z" fill-rule="evenodd"/><path fill="#ff0000" d="m127.098755 73.094734c-0.4543457 0 -0.8452225 0.17751312 -1.1726227 0.5325241c-0.32739258 0.34791565 -0.4910965 0.7597351 -0.4910965 1.235466l0 10.533356c0 0.4828186 0.16370392 0.89819336 0.4910965 1.246109c0.3274002 0.34791565 0.718277 0.5218735 1.1726227 0.5218735l13.229584 0l0 29.970543c0 0.48282623 0.16369629 0.89819336 0.49110413 1.246109c0.33407593 0.34791565 0.72494507 0.5218735 1.1726227 0.5218735l12.68837 0c0.4543457 0 0.84521484 -0.17395782 1.1726227 -0.5218735c0.32739258 -0.34791565 0.49108887 -0.7632828 0.49108887 -1.246109l0 -29.970543l13.239609 0c0.44766235 0 0.8352051 -0.17395782 1.1625977 -0.5218735c0.3340912 -0.34791565 0.50112915 -0.7632904 0.50112915 -1.246109l0 -10.533356c0 -0.47572327 -0.16703796 -0.8875427 -0.50112915 -1.235466c-0.32739258 -0.355011 -0.71492004 -0.5325241 -1.1625977 -0.5325241z" fill-rule="evenodd"/></g></svg>