<svg version="1.1" viewBox="0.0 0.0 192.0 192.0" fill="none" stroke="none" stroke-linecap="square" stroke-miterlimit="10" xmlns:xlink="http://www.w3.org/1999/xlink" xmlns="http://www.w3.org/2000/svg"><clipPath id="p.0"><path d="m0 0l192.0 0l0 192.0l-192.0 0l0 -192.0z" clip-rule="nonzero"/></clipPath><g clip-path="url(#p.0)"><path fill="#ffffff" d="m0 0l192.0 0l0 192.0l-192.0 0z" fill-rule="evenodd"/><path fill="#000000" d="m-0.19028871 95.99869l0 0c0 -53.123703 43.065273 -96.18898 96.18898 -96.18898l0 0c25.510902 0 49.976944 10.134167 68.015884 28.1731c18.038925 18.038933 28.173096 42.504974 28.173096 68.01588l0 0c0 53.123703 -43.065277 96.18898 -96.18898 96.18898l0 0c-53.123703 0 -96.18898 -43.065277 -96.18898 -96.18898z" fill-rule="evenodd"/><path stroke="#00ff00" stroke-width="1.0" stroke-linejoin="round" stroke-linecap="butt" d="m-0.19028871 95.99869l0 0c0 -53.123703 43.065273 -96.18898 96.18898 -96.18898l0 0c25.510902 0 49.976944 10.134167 68.015884 28.1731c18.038925 18.038933 28.173096 42.504974 28.173096 68.01588l0 0c0 53.123703 -43.065277 96.18898 -96.18898 96.18898l0 0c-53.123703 0 -96.18898 -43.065277 -96.18898 -96.18898z" fill-rule="evenodd"/><path fill="#000000" d="m87.567 54.48638l6.962616 16.44004l2.852974 0l7.0475235 -16.44004l-3.0397797 0l-5.4172516 13.036903l-5.36631 -13.036903l-3.039772 0z" fill-rule="evenodd"/><path fill="#000000" d="m87.567 50.676895l3.039772 0l5.36631 -13.01997l5.4172516 13.01997l3.0397797 0l-7.0475235 -16.44004l-2.852974 0l-6.962616 16.44004z" fill-rule="evenodd"/><path stroke="#00ff00" stroke-width="1.0" stroke-linejoin="round" stroke-linecap="butt" d="m87.567 54.48638l6.962616 16.44004l2.852974 0l7.0475235 -16.44004l-3.0397797 0l-5.4172516 13.036903l-5.36631 -13.036903l-3.039772 0z" fill-rule="evenodd"/><path stroke="#00ff00" stroke-width="1.0" stroke-linejoin="round" stroke-linecap="butt" d="m87.567 50.676895l3.039772 0l5.36631 -13.01997l5.4172516 13.01997l3.0397797 0l-7.0475235 -16.44004l-2.852974 0l-6.962616 16.44004z" fill-rule="evenodd"/><path fill="#000000" d="m81.23905 14.436753l-17.761604 -2.2082357l-1.4264755 2.463334l10.756599 14.304969l1.5198746 -2.6246243l-8.615654 -11.195795l14.007385 1.8849773l1.5198746 -2.6246252z" fill-rule="evenodd"/><path fill="#000000" d="m84.54809 16.341478l-1.5198746 2.6246243l8.626419 11.143341l-14.01815 -1.8325214l-1.5198746 2.6246243l17.804062 2.134922l1.4264679 -2.463335l-10.799049 -14.231655z" fill-rule="evenodd"/><path stroke="#00ff00" stroke-width="1.0" stroke-linejoin="round" stroke-linecap="butt" d="m81.23905 14.436753l-17.761604 -2.2082357l-1.4264755 2.463334l10.756599 14.304969l1.5198746 -2.6246243l-8.615654 -11.195795l14.007385 1.8849773l1.5198746 -2.6246252z" fill-rule="evenodd"/><path stroke="#00ff00" stroke-width="1.0" stroke-linejoin="round" stroke-linecap="butt" d="m84.54809 16.341478l-1.5198746 2.6246243l8.626419 11.143341l-14.01815 -1.8325214l-1.5198746 2.6246243l17.804062 2.134922l1.4264679 -2.463335l-10.799049 -14.231655z" fill-rule="evenodd"/><path fill="#000000" d="m119.19312 28.997515l10.798927 -14.231663l-1.4264832 -2.463317l-17.803978 2.1350145l1.5198898 2.624607l14.032791 -1.8410616l-8.641029 11.151814l1.5198822 2.6246052z" fill-rule="evenodd"/><path fill="#000000" d="m115.88411 30.902252l-1.5198822 -2.624607l-13.992615 1.8765831l8.600853 -11.187336l-1.5198898 -2.624607l-10.756477 14.304977l1.4264832 2.4633179l17.761528 -2.2083282z" fill-rule="evenodd"/><path stroke="#00ff00" stroke-width="1.0" stroke-linejoin="round" stroke-linecap="butt" d="m119.19312 28.997515l10.798927 -14.231663l-1.4264832 -2.463317l-17.803978 2.1350145l1.5198898 2.624607l14.032791 -1.8410616l-8.641029 11.151814l1.5198822 2.6246052z" fill-rule="evenodd"/><path stroke="#00ff00" stroke-width="1.0" stroke-linejoin="round" stroke-linecap="butt" d="m115.88411 30.902252l-1.5198822 -2.624607l-13.992615 1.8765831l8.600853 -11.187336l-1.5198898 -2.624607l-10.756477 14.304977l1.4264832 2.4633179l17.761528 -2.2083282z" fill-rule="evenodd"/><path fill="#000000" d="m87.56569 137.51144l6.962616 -16.440033l2.852974 0l7.0475235 16.440033l-3.0397797 0l-5.4172516 -13.036896l-5.36631 13.036896l-3.039772 0z" fill-rule="evenodd"/><path fill="#000000" d="m87.56569 141.32094l3.039772 0l5.36631 13.019974l5.4172516 -13.019974l3.0397797 0l-7.0475235 16.440033l-2.852974 0l-6.962616 -16.440033z" fill-rule="evenodd"/><path stroke="#00ff00" stroke-width="1.0" stroke-linejoin="round" stroke-linecap="butt" d="m87.56569 137.51144l6.962616 -16.440033l2.852974 0l7.0475235 16.440033l-3.0397797 0l-5.4172516 -13.036896l-5.36631 13.036896l-3.039772 0z" fill-rule="evenodd"/><path stroke="#00ff00" stroke-width="1.0" stroke-linejoin="round" stroke-linecap="butt" d="m87.56569 141.32094l3.039772 0l5.36631 13.019974l5.4172516 -13.019974l3.0397797 0l-7.0475235 16.440033l-2.852974 0l-6.962616 -16.440033z" fill-rule="evenodd"/><path fill="#000000" d="m81.23774 177.56108l-17.761604 2.2082367l-1.4264755 -2.4633331l10.756599 -14.304977l1.5198746 2.6246338l-8.615654 11.1957855l14.007385 -1.8849792l1.5198746 2.6246338z" fill-rule="evenodd"/><path fill="#000000" d="m84.546776 175.65636l-1.5198746 -2.6246338l8.626419 -11.143341l-14.01815 1.8325348l-1.5198746 -2.6246338l17.804062 -2.1349182l1.4264679 2.4633331l-10.799049 14.231659z" fill-rule="evenodd"/><path stroke="#00ff00" stroke-width="1.0" stroke-linejoin="round" stroke-linecap="butt" d="m81.23774 177.56108l-17.761604 2.2082367l-1.4264755 -2.4633331l10.756599 -14.304977l1.5198746 2.6246338l-8.615654 11.1957855l14.007385 -1.8849792l1.5198746 2.6246338z" fill-rule="evenodd"/><path stroke="#00ff00" stroke-width="1.0" stroke-linejoin="round" stroke-linecap="butt" d="m84.546776 175.65636l-1.5198746 -2.6246338l8.626419 -11.143341l-14.01815 1.8325348l-1.5198746 -2.6246338l17.804062 -2.1349182l1.4264679 2.4633331l-10.799049 14.231659z" fill-rule="evenodd"/><path fill="#000000" d="m119.19181 163.00032l10.798927 14.231659l-1.4264832 2.4633179l-17.803978 -2.1350098l1.5198898 -2.6246185l14.032791 1.8410645l-8.641029 -11.15181l1.5198822 -2.6246033z" fill-rule="evenodd"/><path fill="#000000" d="m115.8828 161.09558l-1.5198822 2.6246033l-13.992615 -1.8765869l8.600853 11.187347l-1.5198898 2.6246033l-10.756477 -14.304977l1.4264832 -2.4633179l17.761528 2.2083282z" fill-rule="evenodd"/><path stroke="#00ff00" stroke-width="1.0" stroke-linejoin="round" stroke-linecap="butt" d="m119.19181 163.00032l10.798927 14.231659l-1.4264832 2.4633179l-17.803978 -2.1350098l1.5198898 -2.6246185l14.032791 1.8410645l-8.641029 -11.15181l1.5198822 -2.6246033z" fill-rule="evenodd"/><path stroke="#00ff00" stroke-width="1.0" stroke-linejoin="round" stroke-linecap="butt" d="m115.8828 161.09558l-1.5198822 2.6246033l-13.992615 -1.8765869l8.600853 11.187347l-1.5198898 2.6246033l-10.756477 -14.304977l1.4264832 -2.4633179l17.761528 2.2083282z" fill-rule="evenodd"/><path fill="#00ff00" d="m0 93.16404l192.0 0l0 5.6692963l-192.0 0z" fill-rule="evenodd"/><path stroke="#00ff00" stroke-width="1.0" stroke-linejoin="round" stroke-linecap="butt" d="m0 93.16404l192.0 0l0 5.6692963l-192.0 0z" fill-rule="evenodd"/><path fill="#000000" d="m33.84227 75.63101c-1.2180176 0 -2.0961208 0.070755005 -2.6343136 0.21227264c-0.79312706 0.22642517 -1.444624 0.556633 -1.9544926 0.9906235c-0.5098667 0.42926788 -0.9394779 1.0047684 -1.2888298 1.7265015c-0.344635 0.7217407 -0.58068275 1.6769791 -0.70814896 2.8657227c-0.07081413 0.75003815 -0.11330414 2.3067245 -0.1274662 4.670059c-0.014163971 2.3633347 -0.13454819 4.0332336 -0.36115646 5.0097046c-0.22660828 0.9764633 -0.6845455 1.7453766 -1.3738079 2.3067245c-0.6845474 0.556633 -1.5720901 0.8490982 -2.6626396 0.87740326l0 3.4600906c1.0905495 0.028305054 1.9780922 0.32549286 2.6626396 0.8915558c0.6892624 0.56607056 1.1471996 1.3373337 1.3738079 2.3138046c0.22660828 0.9764633 0.3469925 2.73835 0.36115646 5.28566c0.014162064 2.5473022 0.108579636 4.3799515 0.28325844 5.4979324c0.17939568 1.1179886 0.5665188 2.040207 1.1613655 2.7666626c0.5948448 0.73117065 1.3454819 1.2594986 2.251913 1.5849838c0.62317085 0.2264328 1.6287403 0.3396454 3.016714 0.3396454l1.1896896 0l0 -3.3327255l-0.6585808 0c-1.3454819 0 -2.2495537 -0.19104767 -2.7122078 -0.573143c-0.45793915 -0.38209534 -0.743557 -1.054306 -0.8568611 -2.0166168c-0.05665207 -0.523613 -0.0849762 -2.1652145 -0.0849762 -4.924797c0 -3.0426102 -0.351717 -5.231407 -1.0551434 -6.5663834c-0.6987076 -1.3396988 -1.8270226 -2.3350296 -3.3849506 -2.9860077c1.3171577 -0.63682556 2.2825966 -1.3656387 2.896328 -2.1864395c0.61844826 -0.8208008 1.0551434 -1.9883118 1.3100758 -3.5025482c0.15579224 -0.9764633 0.23369026 -3.318573 0.23369026 -7.026314c0 -1.8397217 0.24077034 -3.0237503 0.722311 -3.5520782c0.48154068 -0.5330429 1.4587879 -0.7995682 2.931734 -0.7995682l0.6585808 0l0 -3.3327255z" fill-rule="evenodd"/><path fill="#000000" d="m48.37348 76.1617l0 3.672371l10.261078 0l0 27.447212l4.1214256 0l0 -27.447212l10.303562 0l0 -3.672371z" fill-rule="evenodd"/><path fill="#000000" d="m95.684906 87.433525c1.3738098 0 2.537529 0.53069305 3.4911728 1.5920715c0.95835876 1.0613708 1.4375381 2.5543747 1.4375381 4.4790115c0 1.4434738 -0.2549286 2.8845825 -0.764801 4.3233414c-0.5098648 1.4340363 -1.1660843 2.6180649 -1.9686508 3.5520782c-0.79784393 0.93401337 -1.6358261 1.6392365 -2.5139313 2.1156769c-0.87809753 0.47172546 -1.7137146 0.7075882 -2.5068436 0.7075882c-1.1896896 0 -2.244835 -0.5377655 -3.1654282 -1.6132965c-0.92059326 -1.075531 -1.3808899 -2.5826874 -1.3808899 -4.521469c0 -1.2170486 0.22660828 -2.5543823 0.6798248 -4.0120087c0.45321655 -1.4576187 1.0551453 -2.6958923 1.8057785 -3.7148209c0.75064087 -1.0189209 1.5248795 -1.757164 2.322731 -2.214737c0.8025665 -0.4622879 1.6570663 -0.69343567 2.5634995 -0.69343567zm1.6570663 -11.844971c-4.5321503 0 -8.389206 1.0189209 -11.571152 3.0567703c-3.1772232 2.0378418 -5.6297836 4.9743195 -7.357666 8.809433c-1.4162979 3.1275253 -2.124443 6.4177933 -2.124443 9.870804c0 3.099228 0.594841 5.986168 1.7845306 8.660843c0.9489212 2.1086044 2.358139 3.9719086 4.2276535 5.58992c1.8695068 1.6227264 4.130867 2.8374176 6.7840652 3.6440659c2.6579132 0.8066406 5.5589676 1.2099686 8.703148 1.2099686c3.4132767 0 6.3308487 -0.45049286 8.752716 -1.3514862c2.4218674 -0.8962784 4.51091 -2.1156845 6.2671204 -3.6582184c1.7562027 -1.5425339 2.9954681 -3.0567627 3.717781 -4.542694l-3.845253 0c-1.2463379 1.7831116 -3.1229324 3.297348 -5.6297836 4.542694c-2.5068436 1.2453537 -5.615616 1.8680267 -9.326317 1.8680267c-3.4699326 0 -6.6329956 -0.5990906 -9.489197 -1.7972641c-2.8514786 -1.1934586 -5.0325775 -3.0426178 -6.543289 -5.54747c-1.5059967 -2.5048523 -2.258995 -5.49086 -2.258995 -8.958023c0 -3.3115005 0.75299835 -6.4130783 2.258995 -9.304741c1.5107117 -2.8963852 3.6351624 -5.1181946 6.373337 -6.665451c2.742897 -1.5519714 5.7714157 -2.3279572 9.085548 -2.3279572c2.9034119 0 5.554245 0.6156006 7.9525146 1.8468018c2.4029846 1.2311935 4.208763 2.872795 5.4173355 4.9247894c1.213295 2.0519943 1.8199387 4.259659 1.8199387 6.6229935c0 2.023697 -0.4720993 3.9884186 -1.4162979 5.8941803c-0.939476 1.9010468 -2.2164993 3.4176407 -3.8310776 4.549774c-1.2180176 0.86325073 -2.2023468 1.2948761 -2.9529877 1.2948761c-0.41072083 0 -0.7624359 -0.13679504 -1.0551376 -0.41039276c-0.28797913 -0.2783203 -0.4319687 -0.60852814 -0.4319687 -0.9906235c0 -0.21227264 0.21244049 -1.3090286 0.6373291 -3.290268l3.059204 -14.243683l-3.8027573 0l-0.7223129 3.290268c-0.8072891 -1.3161087 -1.7703705 -2.2949295 -2.889244 -2.9364777c-1.1188812 -0.6462631 -2.294403 -0.96939087 -3.5265808 -0.96939087c-1.6145859 0 -3.2787323 0.56607056 -4.9924545 1.698204c-1.7137146 1.1321335 -3.148903 2.82798 -4.305542 5.087532c-1.1519241 2.2548447 -1.7278824 4.5073166 -1.7278824 6.7574387c0 1.8255692 0.37059784 3.5025482 1.1117935 5.0309296c0.7459183 1.5283813 1.7137222 2.6605225 2.9034119 3.396408c1.1896896 0.7358856 2.4147873 1.1038284 3.675293 1.1038284c1.1471939 0 2.2896805 -0.32077026 3.4274368 -0.9623108c1.142479 -0.6462631 2.1740189 -1.5000839 3.0946121 -2.5614624c0.0849762 0.86325836 0.21952057 1.4717789 0.40364075 1.8255692c0.28326416 0.551918 0.7246704 0.97647095 1.3242416 1.2736588c0.6042862 0.29718018 1.39505 0.4457779 2.3722992 0.4457779c3.059204 0 5.877632 -1.4293213 8.455292 -4.287964c2.8892517 -3.1841354 4.33387 -6.8281937 4.33387 -10.93219c0 -2.872795 -0.6868973 -5.53331 -2.060707 -7.9815598c-1.6145782 -2.84449 -3.8216476 -4.983757 -6.621193 -6.4177933c-2.7948303 -1.4387589 -5.948448 -2.1581345 -9.460869 -2.1581345z" fill-rule="evenodd"/><path fill="#000000" d="m119.117546 76.1617l0 3.672371l10.2610855 0l0 27.447212l4.121414 0l0 -27.447212l10.303574 0l0 -3.672371z" fill-rule="evenodd"/><path fill="#000000" d="m156.97519 75.63101l0 3.3327255l0.65856934 0c1.3454895 0 2.2471924 0.18869019 2.7051392 0.5660629c0.46264648 0.3726654 0.74354553 1.0330734 0.84269714 1.9812393c0.07080078 0.5377655 0.10621643 2.1864395 0.10621643 4.946022c0 3.0426102 0.3328247 5.205467 0.9984894 6.4885483c0.6656647 1.2783737 1.8128662 2.3067322 3.4416046 3.0850754c-1.2463379 0.523613 -2.2094269 1.2571411 -2.8892517 2.2005844c-0.6798248 0.93872833 -1.1330414 2.1935196 -1.3596497 3.7643585c-0.12745667 0.94815826 -0.19119263 3.191208 -0.19119263 6.729126c0 1.8538742 -0.24076843 3.0449753 -0.72232056 3.5733032c-0.48153687 0.53305054 -1.458786 0.7995758 -2.9317322 0.7995758l-0.65856934 0l0 3.3327255l1.189682 0c1.2180176 0 2.0961304 -0.07783508 2.6343231 -0.23350525c0.79312134 -0.22642517 1.4446106 -0.556633 1.954483 -0.99061584c0.50987244 -0.42926788 0.93711853 -1.0024109 1.2817535 -1.7194366c0.34934998 -0.71229553 0.5877533 -1.669899 0.7152252 -2.872795c0.07081604 -0.75003815 0.11331177 -2.3067245 0.12747192 -4.670059c0.014160156 -2.3633347 0.134552 -4.0285187 0.36114502 -4.9955444c0.22660828 -0.971756 0.68218994 -1.7406616 1.3667297 -2.3067322c0.68927 -0.5660629 1.5791779 -0.86325073 2.6697235 -0.8915558l0 -3.4600906c-1.0905457 -0.028305054 -1.9804535 -0.32548523 -2.6697235 -0.8915558c-0.6845398 -0.56607056 -1.1401215 -1.3326187 -1.3667297 -2.299652c-0.22659302 -0.97174835 -0.34698486 -2.7312775 -0.36114502 -5.2785797c-0.014160156 -2.5473099 -0.110946655 -4.3799515 -0.29034424 -5.49794c-0.17468262 -1.117981 -0.559433 -2.0449142 -1.1542816 -2.7808075c-0.59484863 -0.7358856 -1.3454895 -1.2594986 -2.2519073 -1.5708389c-0.6231842 -0.22642517 -1.6287537 -0.33963776 -3.0167236 -0.33963776z" fill-rule="evenodd"/><path stroke="#00ff00" stroke-width="1.0" stroke-linejoin="round" stroke-linecap="butt" d="m33.84227 75.63101c-1.2180176 0 -2.0961208 0.070755005 -2.6343136 0.21227264c-0.79312706 0.22642517 -1.444624 0.556633 -1.9544926 0.9906235c-0.5098667 0.42926788 -0.9394779 1.0047684 -1.2888298 1.7265015c-0.344635 0.7217407 -0.58068275 1.6769791 -0.70814896 2.8657227c-0.07081413 0.75003815 -0.11330414 2.3067245 -0.1274662 4.670059c-0.014163971 2.3633347 -0.13454819 4.0332336 -0.36115646 5.0097046c-0.22660828 0.9764633 -0.6845455 1.7453766 -1.3738079 2.3067245c-0.6845474 0.556633 -1.5720901 0.8490982 -2.6626396 0.87740326l0 3.4600906c1.0905495 0.028305054 1.9780922 0.32549286 2.6626396 0.8915558c0.6892624 0.56607056 1.1471996 1.3373337 1.3738079 2.3138046c0.22660828 0.9764633 0.3469925 2.73835 0.36115646 5.28566c0.014162064 2.5473022 0.108579636 4.3799515 0.28325844 5.4979324c0.17939568 1.1179886 0.5665188 2.040207 1.1613655 2.7666626c0.5948448 0.73117065 1.3454819 1.2594986 2.251913 1.5849838c0.62317085 0.2264328 1.6287403 0.3396454 3.016714 0.3396454l1.1896896 0l0 -3.3327255l-0.6585808 0c-1.3454819 0 -2.2495537 -0.19104767 -2.7122078 -0.573143c-0.45793915 -0.38209534 -0.743557 -1.054306 -0.8568611 -2.0166168c-0.05665207 -0.523613 -0.0849762 -2.1652145 -0.0849762 -4.924797c0 -3.0426102 -0.351717 -5.231407 -1.0551434 -6.5663834c-0.6987076 -1.3396988 -1.8270226 -2.3350296 -3.3849506 -2.9860077c1.3171577 -0.63682556 2.2825966 -1.3656387 2.896328 -2.1864395c0.61844826 -0.8208008 1.0551434 -1.9883118 1.3100758 -3.5025482c0.15579224 -0.9764633 0.23369026 -3.318573 0.23369026 -7.026314c0 -1.8397217 0.24077034 -3.0237503 0.722311 -3.5520782c0.48154068 -0.5330429 1.4587879 -0.7995682 2.931734 -0.7995682l0.6585808 0l0 -3.3327255z" fill-rule="evenodd"/><path stroke="#00ff00" stroke-width="1.0" stroke-linejoin="round" stroke-linecap="butt" d="m48.37348 76.1617l0 3.672371l10.261078 0l0 27.447212l4.1214256 0l0 -27.447212l10.303562 0l0 -3.672371z" fill-rule="evenodd"/><path stroke="#00ff00" stroke-width="1.0" stroke-linejoin="round" stroke-linecap="butt" d="m95.684906 87.433525c1.3738098 0 2.537529 0.53069305 3.4911728 1.5920715c0.95835876 1.0613708 1.4375381 2.5543747 1.4375381 4.4790115c0 1.4434738 -0.2549286 2.8845825 -0.764801 4.3233414c-0.5098648 1.4340363 -1.1660843 2.6180649 -1.9686508 3.5520782c-0.79784393 0.93401337 -1.6358261 1.6392365 -2.5139313 2.1156769c-0.87809753 0.47172546 -1.7137146 0.7075882 -2.5068436 0.7075882c-1.1896896 0 -2.244835 -0.5377655 -3.1654282 -1.6132965c-0.92059326 -1.075531 -1.3808899 -2.5826874 -1.3808899 -4.521469c0 -1.2170486 0.22660828 -2.5543823 0.6798248 -4.0120087c0.45321655 -1.4576187 1.0551453 -2.6958923 1.8057785 -3.7148209c0.75064087 -1.0189209 1.5248795 -1.757164 2.322731 -2.214737c0.8025665 -0.4622879 1.6570663 -0.69343567 2.5634995 -0.69343567zm1.6570663 -11.844971c-4.5321503 0 -8.389206 1.0189209 -11.571152 3.0567703c-3.1772232 2.0378418 -5.6297836 4.9743195 -7.357666 8.809433c-1.4162979 3.1275253 -2.124443 6.4177933 -2.124443 9.870804c0 3.099228 0.594841 5.986168 1.7845306 8.660843c0.9489212 2.1086044 2.358139 3.9719086 4.2276535 5.58992c1.8695068 1.6227264 4.130867 2.8374176 6.7840652 3.6440659c2.6579132 0.8066406 5.5589676 1.2099686 8.703148 1.2099686c3.4132767 0 6.3308487 -0.45049286 8.752716 -1.3514862c2.4218674 -0.8962784 4.51091 -2.1156845 6.2671204 -3.6582184c1.7562027 -1.5425339 2.9954681 -3.0567627 3.717781 -4.542694l-3.845253 0c-1.2463379 1.7831116 -3.1229324 3.297348 -5.6297836 4.542694c-2.5068436 1.2453537 -5.615616 1.8680267 -9.326317 1.8680267c-3.4699326 0 -6.6329956 -0.5990906 -9.489197 -1.7972641c-2.8514786 -1.1934586 -5.0325775 -3.0426178 -6.543289 -5.54747c-1.5059967 -2.5048523 -2.258995 -5.49086 -2.258995 -8.958023c0 -3.3115005 0.75299835 -6.4130783 2.258995 -9.304741c1.5107117 -2.8963852 3.6351624 -5.1181946 6.373337 -6.665451c2.742897 -1.5519714 5.7714157 -2.3279572 9.085548 -2.3279572c2.9034119 0 5.554245 0.6156006 7.9525146 1.8468018c2.4029846 1.2311935 4.208763 2.872795 5.4173355 4.9247894c1.213295 2.0519943 1.8199387 4.259659 1.8199387 6.6229935c0 2.023697 -0.4720993 3.9884186 -1.4162979 5.8941803c-0.939476 1.9010468 -2.2164993 3.4176407 -3.8310776 4.549774c-1.2180176 0.86325073 -2.2023468 1.2948761 -2.9529877 1.2948761c-0.41072083 0 -0.7624359 -0.13679504 -1.0551376 -0.41039276c-0.28797913 -0.2783203 -0.4319687 -0.60852814 -0.4319687 -0.9906235c0 -0.21227264 0.21244049 -1.3090286 0.6373291 -3.290268l3.059204 -14.243683l-3.8027573 0l-0.7223129 3.290268c-0.8072891 -1.3161087 -1.7703705 -2.2949295 -2.889244 -2.9364777c-1.1188812 -0.6462631 -2.294403 -0.96939087 -3.5265808 -0.96939087c-1.6145859 0 -3.2787323 0.56607056 -4.9924545 1.698204c-1.7137146 1.1321335 -3.148903 2.82798 -4.305542 5.087532c-1.1519241 2.2548447 -1.7278824 4.5073166 -1.7278824 6.7574387c0 1.8255692 0.37059784 3.5025482 1.1117935 5.0309296c0.7459183 1.5283813 1.7137222 2.6605225 2.9034119 3.396408c1.1896896 0.7358856 2.4147873 1.1038284 3.675293 1.1038284c1.1471939 0 2.2896805 -0.32077026 3.4274368 -0.9623108c1.142479 -0.6462631 2.1740189 -1.5000839 3.0946121 -2.5614624c0.0849762 0.86325836 0.21952057 1.4717789 0.40364075 1.8255692c0.28326416 0.551918 0.7246704 0.97647095 1.3242416 1.2736588c0.6042862 0.29718018 1.39505 0.4457779 2.3722992 0.4457779c3.059204 0 5.877632 -1.4293213 8.455292 -4.287964c2.8892517 -3.1841354 4.33387 -6.8281937 4.33387 -10.93219c0 -2.872795 -0.6868973 -5.53331 -2.060707 -7.9815598c-1.6145782 -2.84449 -3.8216476 -4.983757 -6.621193 -6.4177933c-2.7948303 -1.4387589 -5.948448 -2.1581345 -9.460869 -2.1581345z" fill-rule="evenodd"/><path stroke="#00ff00" stroke-width="1.0" stroke-linejoin="round" stroke-linecap="butt" d="m119.117546 76.1617l0 3.672371l10.2610855 0l0 27.447212l4.121414 0l0 -27.447212l10.303574 0l0 -3.672371z" fill-rule="evenodd"/><path stroke="#00ff00" stroke-width="1.0" stroke-linejoin="round" stroke-linecap="butt" d="m156.97519 75.63101l0 3.3327255l0.65856934 0c1.3454895 0 2.2471924 0.18869019 2.7051392 0.5660629c0.46264648 0.3726654 0.74354553 1.0330734 0.84269714 1.9812393c0.07080078 0.5377655 0.10621643 2.1864395 0.10621643 4.946022c0 3.0426102 0.3328247 5.205467 0.9984894 6.4885483c0.6656647 1.2783737 1.8128662 2.3067322 3.4416046 3.0850754c-1.2463379 0.523613 -2.2094269 1.2571411 -2.8892517 2.2005844c-0.6798248 0.93872833 -1.1330414 2.1935196 -1.3596497 3.7643585c-0.12745667 0.94815826 -0.19119263 3.191208 -0.19119263 6.729126c0 1.8538742 -0.24076843 3.0449753 -0.72232056 3.5733032c-0.48153687 0.53305054 -1.458786 0.7995758 -2.9317322 0.7995758l-0.65856934 0l0 3.3327255l1.189682 0c1.2180176 0 2.0961304 -0.07783508 2.6343231 -0.23350525c0.79312134 -0.22642517 1.4446106 -0.556633 1.954483 -0.99061584c0.50987244 -0.42926788 0.93711853 -1.0024109 1.2817535 -1.7194366c0.34934998 -0.71229553 0.5877533 -1.669899 0.7152252 -2.872795c0.07081604 -0.75003815 0.11331177 -2.3067245 0.12747192 -4.670059c0.014160156 -2.3633347 0.134552 -4.0285187 0.36114502 -4.9955444c0.22660828 -0.971756 0.68218994 -1.7406616 1.3667297 -2.3067322c0.68927 -0.5660629 1.5791779 -0.86325073 2.6697235 -0.8915558l0 -3.4600906c-1.0905457 -0.028305054 -1.9804535 -0.32548523 -2.6697235 -0.8915558c-0.6845398 -0.56607056 -1.1401215 -1.3326187 -1.3667297 -2.299652c-0.22659302 -0.97174835 -0.34698486 -2.7312775 -0.36114502 -5.2785797c-0.014160156 -2.5473099 -0.110946655 -4.3799515 -0.29034424 -5.49794c-0.17468262 -1.117981 -0.559433 -2.0449142 -1.1542816 -2.7808075c-0.59484863 -0.7358856 -1.3454895 -1.2594986 -2.2519073 -1.5708389c-0.6231842 -0.22642517 -1.6287537 -0.33963776 -3.0167236 -0.33963776z" fill-rule="evenodd"/></g></svg>